<?xml version="1.0" encoding="UTF-8"?>
<svg id="Layer_2" data-name="Layer 2" xmlns="http://www.w3.org/2000/svg" viewBox="0 0 1920 70">
  <g id="finalizados">
    <g id="fundo-papel1">
      <path d="M1919.9,31.5l-1.3,1.3-2.1,.7-.6,2-2.1,.7-.8,1.1-1.5,.2-1.8,1.5-2.1-.8-1.9,.8-1.7,2.2-2.4-2.1-2.8,1.4-2,.3-1.8-.4-1.5,1.9-1.9-1-1.6,1.4-2,.5-1.2-3-2.3,1.5c-.7-.6-2.3-1.6-3.1-2.1l-1.8-.2-1.5-1.1-1.8-.3-1.5-1.1-1.9,.4-1.6-.5-1.5-1-1.7-.4-1.9,.5-1.5-1.8-2.2,.4-1.6-1.7-2,.2-2-.5-1.6-1.1c-.1-1.1-.4-3.3-.6-4.5l-1.7-1-1-1.6-2.4,.3-1.3-.5-1.8,.7-1.8-2-1.8-.3-1.8,.5-2.1,1.2-1.5-1.6-1-2.1c-.8-.4-2.5-1.2-3.3-1.7h-2.1s-2.4,.6-2.4,.6l-.6-3-2.8,1.3-.6-3-2.4,.8-1.4-1.5-2.2,.5-1-2.7c-.9-.2-2.8-.6-3.7-.8h-2c0,.1-1.5-1.2-1.5-1.2l-1.7-.8-2.4,1.1-1-2.8-2.6,1.5-1.4-1.7-1.9-.9-1.7,1.4-1.8,.2-1.8,.7-1.9-.9-1.8,1.1-.6,3.3h-1.8s-1.9-.8-1.9-.8l-1.8,.8-1.9-.9-1.8,1-2-1.6-1.8,1.2-1.9,.7-2-.3-1.1-1.8-1.9-.2-1.4-1.2-1.7-.6h-2c-.7-.7-1.9-2.2-2.5-2.9l-1.5-1.1-2.4,.7-1.8-.6-1.5-1.1-1.3,3.4h-2c0,0-1-2.3-1-2.3l-2.2,.8-1.6-2-1.9-.3-1.9,.5-2,1.3-1.8-1.4-1.9-.9h-1.9c0-.1-2,1.5-2,1.5l-1.9-.4-1.7,.6-1.8-.2-1.8,.2-2-1.5-1.7,1.4-1.8-.2-1.7,.7-1.9-.7c-1.1,.8-4.4,2.7-5.5,3.4l-2.9,.8c-.5,1.3-1.9,4.4-2.3,5.6h-2.4l-1,2.2-1.8-1.4-1.7,1.1c-.9-.3-2.6-.5-3.5-.5l-1.7,.8-1.8-.7c-.8,.3-2.6,.8-3.4,1l-1.7,.8-1.8-1.5-1.4,2c-.9,.6-2.3,1.3-3.3,1.6l-1.4,1.4h-2.2c-.8,.5-2.4,1.7-3.2,2.3l-2.5-.5-1.3,1.6-3-2.2-1.9,.7-.9,2.4-1.7,1-2.1,.7-1.6-2.1-2.1,.8-1.6-1.5-2.3,1.5-1.5-1.9-2,1.1-1.8-1-1.8,1.1h-2.1c0,0-1.7,.6-1.7,.6l-2,1.9-1.5-1.1-1.4-1.9-1.9,.9-1.8,.4-1.3-2.3-2,1.1c-.8-.5-2.4-1.7-3.1-2.3l-2.2,4.3-1.6-1.9-1.8-.8-2,2.1c-.9,0-2.8,0-3.7-.1l-1.7-1.2-1.6-.7h-2.1c0,0-.9-.4-.9-.4l-1.6,4.6h-1.4c0,.1-2.7-1.3-2.7-1.3l-2.1,.5-2-2-2.1-.4-1.7,.7-1.6-1.1-1.8,.3-1.4,1.6-1.7-1.7-2.3-.3-1.7,.9-1.7-3.1h-2.3l-1.2,.9-1.6-1-2.3,1.8c-.8-.2-2.6-.7-3.4-1.1-1.8-1-4-2.7-5.6-4.1l-.8,1.9-1.4-1-1.2,.7-2-.2c-.9,0-2.8,.1-3.8,0l-1.6-1.2-1.8-.3-2.2,1.6-1.3,.5h-1.6c0-.1-2.1-.8-2.1-.8l-1.2,2.1-1.9-5.5-1.3,1.8-1-.9-.9-1.5-2.2-.5-.8-1.6-1.4-.9-1.7,.6-1.7-.9-3.1-.2-4,.4-3.1,1.5-2.5-.9-3.4,1.8-3.1-1.5h-2.5l-3.7-.9-3.2,.8-3-1.1-4.3,1.5-4.8-.9-1.3,2.3h-3.8c0,.1-2.3,2.7-2.3,2.7-.8,0-2.4,0-3.2,.2l-1.7-1h-1.3s-2.2,.7-2.2,.7l.7,2.2h-2.2l-1.1,.9-1.2,2.1-3.8-.3-1.7-1.3h-1.7c0,.1-1.9-.5-1.9-.5l-1.7,1h-1.8c-.9-.4-2.8-1-3.8-1.2l-1.6,.9-2.1-1.8-2.2,.8-1.3,.2-1.4-.3-1.2,1.5h-1.5l-2.3-2.6-.2-1.8-1.2-1.6c-.7,.2-2.3,.6-3.1,.7l-1.8-.8-1.7-1.6-1.8,1.6-1.8-1.2-1.8,1.2c-.9-.3-2.7-.8-3.6-1l-1.8-1.2-1.8,1c-.9-.3-2.7-.9-3.6-1.2l-1.8,.6-1.8-.9-2-.2-1.6,.8-1.8,1.8-2-1.4-1.6,1.3c-.9-.7-2.5-1.4-3.5-1.8l-1.8,1.7c-.9-.5-2.7-1.8-3.5-2.5l-1.8,1.4-1.7-1.1c-.9,0-2.6-.5-3.5-.8l-2,.9-1.6-1.5-1.9,.2-2,1-1.6-1.4-1.9,.8-1.6-1.7c-1.6,.3-3.9,.7-5.5,.6-.9-.3-2.6-1-3.5-1.4l-1.9,.2c-.9-.1-2.7-.7-3.5-1.1l-2,1.3-1.4-2.6-2,.9-1.9,.3-1.6-.8-1.2,.5-1.2-.5-1.6,.8-1.9-.3-2-.9-1.4,2.6-2-1.3c-.8,.4-2.6,1-3.5,1.1-1.6,.7-3.7,1.6-5.3,2.1l-1.8,2c-.9-.1-2.8-.4-3.7-.6l-1.6,3.7-1.9,1.2c-.9-.2-2.7-1.1-3.6-1.6l-1.9-.2-1.6,1.5-2-.9c-.8,.3-2.6,.7-3.5,.8l-1.7,1.1-1.8,.6-1.8,1.4-1.8-.9-1.8-1.7c-1.1,.4-2.6,1.1-3.5,1.8l-1.6-1.3-2,1.4c-.9-.9-2.7-2.7-3.5-3.6l-2,.2-1.8,.9-1.8-2.6-1.8-1.4-1.8,.6-1.8-1-1.8-3.8c-.9,.2-2.7,.7-3.6,1l-1.8-1.2-1.8,1.2-1.8-1.6-1.7-.4-1.8,.8c-.8-.2-2.4-.5-3.1-.7l-1.2,1.6-.2,1.8-2.3,2.6h-1.5l-1.2-1.5-1.4,.3-1.3-.2-2.2-.8-2.1,1.8-1.6-.9c-1,.2-2.9,.8-3.8,1.2h-1.8s-1.7-1-1.7-1l-1.9,.6h-1.7c-1,.9-4.3,2.8-5.5,3.6l-1.2-2.1-1.1-.9h-2.2l.7-2.2-2.2-.7h-1.3s-1.7,1-1.7,1c-.8-.1-2.4-.2-3.2-.2l-2.3-2.6-3.8,4.9-1.3-2.3-4.8,.9-4.3-1.5-3,1.1-3.2-.8-3.7,.9h-2.5l-3.1,1.5-3.4-1.8-2.5,.9-3.1-1.5-4-.4-3.1,.2-1.7,.9-1.7-.6-1.4,.9-.8,1.6-2.2,.5-.9,1.5-1,.9-1.3-1.8-1.9,2.5-1.2-2.1-2.1,.6h-1.6c0,.1-1.3-.4-1.3-.4l-2.2-1.6-1.8,.3-1.6,1.2c-.9,0-2.8,0-3.8,0l-2,.2-1.2-.7-1.4,1-.8-1.9-1.4,1.2-2.2-.4c-.4,.3-1.5,1-2,1.2-.8,.3-2.5,.9-3.4,1.1l-2.3-1.8-1.6,1-1.2-.9h-2.3l-1.7,2.1-1.7-.9-2.3,.3-1.7,1.7-1.4-1.6-1.8-.3c-.8-.5-2.4-1.3-3.3-1.6l-2.1,.4h-2s-2.1-.5-2.1-.5l-2.7,1.4h-1.4c0-.1-1.6,.3-1.6,.3l-.9,.4h-2.1s-1.6,.6-1.6,.6l-1.7,1.2c-.9,.2-2.8,.2-3.7,.1l-2-1.1-1.8,.8-1.6,1.9-2.2-.3c-.8,.6-2.3,1.8-3.1,2.3l-2-1.1-1.3,2.3-1.8-.4-1.9-.9-1.4,1.9-.6,1.7c-1.1,.2-2.2,.3-3.1,.4l-1.5-.4-1,.9-2.1,.4c-1.5-.9-3.3-1.8-4.7-2.6l-1.5,1.9-2.3-1.5-1.6,1.5-2.1-.8-1.6,2.1-2.1-.7-1.7-1-.9-2.4-1.9-.7-3,2.2-1.3-1.6-2.5,.5c-.8-.6-2.4-1.7-3.2-2.2h-2.2s-1.4-1.5-1.4-1.5l-1.8-.7-1.5,1.1-1.4-2-1.8,1.5-1.7-.8c-.9-.2-2.6-.7-3.4-1l-1.8,.7-1.7-.8c-.9,0-2.7,.2-3.5,.5l-1.7-1.1-1.8,1.4-1-2.2h-2.4l-.8,1-1.6-1.4,.8-2.8,1.8-.8,.8-2.6-2,2.4-1.6-1-1.3,.4-1.7-1.4c-.9-.3-2.7-.5-3.6-.5l-1.7-1.1-1.9,.7-1.7-.7-1.8,.2-1.7-1.4-2,1.5-1.8-.2-1.8,.2-1.7-.6-1.9,.4-2-1.6h-1.9c0,.1-1.9,1-1.9,1l-1.8,1.4-2-1.3-1.9-.5-1.9,.3-1.6,2-2.2-.8-1,2.2h-2c0,0-1.3,1.7-1.3,1.7l-1.5-2.9-1.8,.6-2.4-.7-1.5,1.1c-.6,.8-1.9,2.2-2.5,2.9h-2s-1.7,.6-1.7,.6l-1.4,1.2-1.9,.2-1.1,1.8-2,.3-1.9-.7-1.8-1.2-2,1.6-1.8-1-1.9,.9-1.8-.8-1.8,.7-2-.4-.5-2.8-1.8-1.1-1.9,.9-1.8-.7-1.8-.2-1.7-1.4-1.9,.9-1.4,1.7-2.6-1.5-1,2.8-2.4-1.1-1.7,.8-1.5,1.3h-2c-.9,0-2.8,.5-3.7,.7-.6-.2-2.5-.7-3.2-.8l-1.4,1.5-2.4-.8-.6,3-2.8-1.3-.6,1-2.4-.6h-2.1s-1.7,.8-1.7,.8l-1.7-2.2-1,2.1-1.5,1.6-2.1-1.2-1.8-.5-1.8,.3-1.8,2-1.8-.7-1.3,.5-2.4-.3-1,1.6-1.7,1-.3,2.2-.3-.8-1.6,1.1-2,.5-2-.2-1.6,1.7-2.2-.4-1.5,1.8-1.9-.5-1.7,.4-1.5,1-1.6-1.5-1.9-.4-1.5,1.1-1.8,.3-1.5,1.1-1.8,.2c-.8,.5-2.3,1.5-3.1,2.1l-2.3-1.5-1.2,3-2-.5-1.6-1.4-1.9,1-1.5-1.9-1.8,.4-2-.3-1.8-1.4-2.4,2.1-1.7-2.2-1.9-.8-2.1,.8-1.8-1.5-1.5-.2-.8,.8-2.1-.7-.6-2-2.1-.7-1.3-1.3-1,1.4h-1.9c0-.1-1.7-1.7-1.7-1.7l-2,1.6-1.7-1.2h-1.9c0,.1-1.8-.2-1.8-.2l-1.9,.2-1.8-1.1-1.9,.4-1.8,1-1.8,.5c-1-.4-2.8-1.3-3.7-1.9l-1.8,.3c-1-.1-2.5-.6-3.4-1.1-.9-.3-2.5-1.1-3.3-1.5l-2.4,1.9-1.6-.8-1.1-2.6-2.3,1.5-1.5-1.1-1.4-1.6-2.1,1.8-1.8-1.4-1.9,.9h-1.9c0,.1-1.9,.9-1.9,.9-.6-.4-2.4-1.7-2.9-2.3v-1c-.1,0-1.3,0-1.3,0l-2.2-.8-1.9-2.1-.5-1.3-2.4-.2-.9-1.5-1.6-.6c-.7,.7-2.3,1.8-3.2,2.2l-2-.6c-1.5,.2-3.4,1.1-4.8,1.7l-2.1-.4-1.2,1.8-2,.3-1.1,1.6-.7,2.8-2.2-3.4-1.8-.8h-1.7c0,.1-1.6,2.3-1.6,2.3l-1.8-1.1h-1.7c0,.1-1.7,.9-1.7,.9l-1.7-2.7-1.8,.3-1.8,1.6-1.7-1.1-1.8,.5-1.6-1.1-1.9,1h-1.8c0,0-1.7-1.1-1.7-1.1l-1.8-.6-2,.6-1.6-1.4-2.1,1.4-1.7-1.2-1.4,1.9-2.3-.9-1.9,.4c-.7,1.1-2.3,3.5-3.1,4.5l-2.4-1.2-1.4,2c-1,0-3,.3-3.9,.4-.9,.3-2.8,.7-3.8,.9-.7,.9-2.3,2.6-3,3.4-1.8,0-4.4,.2-6.1-.3l-2.1-3.8-1.6,2.2c-.9,0-2.8,.4-3.7,.6l-1.8-.2-2-1.1-1.8,.3-1.3,2.7-1.8-.2-1.7,1.3-1.9-.3-1.9,.3-1.7-1.3-1.8,.2-1.3-.7-1.8,.7-2-.9-1.8,.2c-.9-.2-2.8-.5-3.7-.6l-1.6,.8-2.1-.2c-1.8,.5-4.3,.4-6.1,.3-.8-.8-2.3-2.5-3-3.4-1-.1-2.8-.5-3.8-.9-1-.1-2.9-.3-3.9-.4l-1.4,1-2.4-1.7-1.4,1.2c-.9-.4-2.6-.9-3.6-1.1l-2.3,.9-1.4-1.9-1.7,1.2-2.1-1.4-1.6,1.4-2-.6-1.8,.6-1.7,1h-1.8c0,0-1.9-.9-1.9-.9l-1.6,1.1-1.8-1.5-1.7,1.1-1.8,.4-1.8-2.3-1.7,.7-1.7-.8h-1.7c0-.1-1.8,2.9-1.8,2.9l-1.6-4.2h-1.7c-1.1,.2-3,1.4-4,2.1l-.7-2.8-1.1-1.6-2,1.6-1.2-1.8-2.1,.4-1.6-.7-1.6,1.3-1.7-.4-2,.6c-.9-.4-2.4-1.6-3.2-2.2l-1.6,.6-.9,1.5-2.4,.2-.5-.7h-1.9c0,.1-2.2,.9-2.2,.9h-1.2c0,0-.1,.9-.1,.9-.5,.6-2.2,1.8-2.9,2.3l-1.9-.8h-1.9c0-.1-1.9-1.1-1.9-1.1l-1.8,1.4-2.1-1.8-1.4,1.6-1.5,1.1-2.3-1.5-1.1,2.6-1.6,1.8-2.4-2.9c-.8,.5-2.4,1.2-3.3,1.5-.9,.4-2.4,.9-3.4,1.1l-1.8-.3c-.9,.6-2.7,1.5-3.7,1.9l-1.8-.5-1.8-1-1.9-.4-1.8,1.1-1.9-.2-1.8,.3h-1.9c0-.1-1.7,1-1.7,1l-2-1.6-1.7,1.5h-1.9c0,.1-1,1.8-1,1.8l-1.3,1.3-2.1,.7-.6,2-2.1,.7-.8,1.1-1.5,.2-1.8,1.5-2.1-.8-1.9,.8-1.7,2.2-2.4-2.1-1.8,1.4-2,.3-1.8-.4-1.5,1.9-1.9-1-1.6,1.4-2,.5-1.2-3-2.3,1.5c-.7-.6-2.3-1.6-3.1-2.1l-1.8-.2-1.5-1.1-1.8-.3-1.5-1.1-1.9,.4-1.6-.5-1.5-1-1.7-.4-1.9,.5-1.5-1.8-2.2,.4-1.6-1.7-2,.2-2-.5-1.6-1.1c-.1-1.1-.4-3.3-.6-4.5l-1.7-1-1-1.6-2.4,.3-1.3-.5-1.8,.7-1.8-2-1.8-.3-1.8,.5-2.1,1.2-1.5-1.6-1-2.1c-.8-.4-2.5-1.2-3.3-1.7h-2.1s-2.4,.6-2.4,.6l-.6-3-2.8,1.3-.6-3-2.4,.8-1.4-1.5-2.2,.5-1-2.7c-.9-.2-2.8-.6-3.7-.8h-2c0,.1-1.5-1.2-1.5-1.2l-1.7-.8-2.4,1.1-1-2.8-2.6,1.5-1.4-1.7-1.9-.9-1.7,1.4-1.8,.2-1.8,.7-1.9-.9-1.8,1.1-.6,3.3h-1.8s-1.9-.8-1.9-.8l-1.8,.8-1.9-.9-1.8,1-2-1.6-1.8,1.2-1.9,.7-2-.3-1.1-1.8-1.9-.2-1.4-1.2-1.7-.6h-2s-1.3-5.4-1.3-5.4l-1.2-1.5-1.5-1.1-2.4,.7-1.8-.6-1.5,.9-1.3,2.4h-2c0,0-1-2.3-1-2.3l-2.2,.8-1.6-2-1.9-.3-1.9,.5c-1,.6-2.9,2-3.8,2.8l-1.9-.9h-1.9c0-.1-2,1.5-2,1.5l-1.9-.4-1.7,.6-1.8-.2-1.8,.2-2-1.5-1.7,1.4-1.8-.2-1.7,.7-1.9-.7-1.7,1.1c-.9,0-2.7,.3-3.6,.5-.7-.2-2.3-.7-3-1l-1.6,1c.4,1.1,1.1,3.6,1.4,4.8l-1.6,1.4-.8,2h-2.4l-1,2.2-1.8-1.4-1.7,1.1c-.9-.3-2.6-.5-3.5-.5l-1.7,.8-1.8-.7c-.8,.3-2.6,.8-3.4,1l-1.7,.8-1.8-1.5-1.4,2c-.9,.6-2.3,1.3-3.3,1.6l-1.4,1.4h-2.2c-.8,.5-2.4,1.7-3.2,2.3l-2.5-.5-1.3,1.6-3-2.2-1.9,.7-.9,2.4-1.7,1-2.1,.7-1.6-2.1-2.1,.8-1.6-1.5-2.3,1.5-1.5-1.9-2,1.1-1.8-1-1.8,1.1-2.1-1.9-1.7,.5-2,1.9-1.5-1.1-1.4-1.9-1.9,.9-1.8,.4-1.3-2.3-2,1.1c-.8-.5-2.4-1.7-3.1-2.3l-2.2,2.3-1.6-1.9-1.8-.8-2,1.1c-.9,0-2.8,0-3.7-.1l-1.7-1.2-1.6-.7h-2.1s-.9-.4-.9-.4l-1.6-.4h-1.4c0,.1-2.7-1.3-2.7-1.3l-2.1,.5h-2s-2.1-.5-2.1-.5c-.9,.3-2.5,1.1-3.3,1.6l-1.8,.3-1.4,1.6-1.7-1.7-2.3-.3-1.7,.9-1.7-2.1h-2.3l-1.2,.9-1.6-1-2.3,1.8c-.8-.2-2.6-.7-3.4-1.1-.5-.3-1.6-.9-2-1.2l-2.2,.4-1.4-1.2-.8,1.9-1.4-1-1.2,.7-2-.2c-.9,0-2.8,.1-3.8,0l-1.6-1.2-1.8-.3-2.2,1.6-1.3,.5h-1.6c0-.1-2.1-.8-2.1-.8l-1.2,2.1-1.9-2.5-1.3,1.8-1-.9-.9-1.5-2.2-.5-.8-1.6-1.4-.9-1.7,.6-1.7-.9-3.1-.2-4,.4-3.1,1.5-2.5-.9-3.4,1.8-3.1-1.5h-2.5l-3.7-.9-3.2,.8-3-1.1-4.3,1.5-4.8-.9-1.3,2.3h-4.8c0,.1-2.3,2.7-2.3,2.7-.8,0-2.4,0-3.2,.2l-1.7-1h-1.3s-2.2,.7-2.2,.7l.7,2.2H2.7l-1.1,.9-1.2,2.1h-.4s0,2.5,0,2.5v44.5H1920V31.5ZM93.2,22.9s0,0,0,0h0s0,0,0,0Z" fill="#fff" fill-rule="evenodd"/>
    </g>
  </g>
</svg>